<?xml version="1.0" standalone="no"?>
<!DOCTYPE svg PUBLIC "-//W3C//DTD SVG 20010904//EN"
 "http://www.w3.org/TR/2001/REC-SVG-20010904/DTD/svg10.dtd">
<svg version="1.0" xmlns="http://www.w3.org/2000/svg"
 width="83.000000pt" height="83.000000pt" viewBox="0 0 83.000000 83.000000"
 preserveAspectRatio="xMidYMid meet">
<metadata>
Created by potrace 1.11, written by Peter Selinger 2001-2013
</metadata>
<g transform="translate(0.000000,83.000000) scale(0.100000,-0.100000)"
fill="#000000" stroke="none">
<path d="M390 807 c0 -20 -4 -22 -40 -19 -29 3 -47 -1 -61 -14 -24 -22 -49
-103 -49 -161 0 -29 -4 -43 -13 -43 -26 0 -57 -45 -57 -82 0 -34 25 -67 60
-80 4 -2 10 -12 12 -23 2 -16 -3 -20 -29 -20 -51 0 -113 -71 -113 -129 0 -14
11 -37 24 -52 20 -24 31 -28 88 -30 36 -1 75 -7 86 -13 12 -6 62 -14 111 -18
l91 -6 0 -42 c0 -55 22 -75 81 -75 50 0 69 13 69 46 0 13 5 26 10 29 17 10 11
71 -8 88 -10 10 -23 17 -29 17 -13 0 -23 33 -23 76 0 17 -7 48 -15 67 -22 53
-19 81 16 133 26 37 33 59 37 115 4 63 7 69 27 69 12 0 29 8 39 18 15 18 15
20 -2 35 -10 10 -26 17 -35 17 -12 0 -17 9 -17 30 0 24 -9 36 -42 60 -50 37
-68 37 -98 5 -14 -15 -35 -25 -52 -25 -23 0 -28 4 -28 25 0 18 -5 25 -20 25
-14 0 -20 -7 -20 -23z"/>
</g>
</svg>
